<svg xmlns="http://www.w3.org/2000/svg" xmlns:xlink="http://www.w3.org/1999/xlink" width="500" zoomAndPan="magnify" viewBox="0 0 375 374.999991" height="500" preserveAspectRatio="xMidYMid meet" version="1.0"><defs><g/><clipPath id="0744503275"><rect x="0" width="129" y="0" height="243"/></clipPath><clipPath id="038e73ce8d"><rect x="0" width="123" y="0" height="11"/></clipPath></defs><g transform="matrix(1, 0, 0, 1, 122, 27)"><g clip-path="url(#0744503275)"><g fill="#000000" fill-opacity="1"><g transform="translate(1.32918, 200.938691)"><g><path d="M 125.1875 -127 L 125.1875 -76.203125 L 111.078125 -63.90625 L 125.1875 -50 L 125.1875 -2.015625 C 125.1875 -0.671875 124.515625 0 123.171875 0 L 66.734375 0 C 65.515625 0 64.90625 -0.671875 64.90625 -2.015625 L 64.90625 -42.53125 L 61.890625 -45.765625 L 61.890625 -2.015625 C 61.890625 -0.671875 61.285156 0 60.078125 0 L 3.625 0 C 2.28125 0 1.609375 -0.671875 1.609375 -2.015625 L 1.609375 -127 C 1.609375 -128.34375 2.28125 -129.015625 3.625 -129.015625 L 60.078125 -129.015625 C 61.285156 -129.015625 61.890625 -128.34375 61.890625 -127 L 61.890625 -81.25 L 64.90625 -84.46875 L 64.90625 -127 C 64.90625 -128.34375 65.515625 -129.015625 66.734375 -129.015625 L 123.171875 -129.015625 C 124.515625 -129.015625 125.1875 -128.34375 125.1875 -127 Z M 125.1875 -127 "/></g></g></g></g></g><g transform="matrix(1, 0, 0, 1, 125, 232)"><g clip-path="url(#038e73ce8d)"><g fill="#000000" fill-opacity="1"><g transform="translate(1.299085, 8.074911)"><g><path d="M 4.34375 0 L 2.375 -2.53125 L 1.6875 -2.015625 L 1.6875 0 L 0.53125 0 L 0.53125 -5.5 L 1.6875 -5.5 L 1.6875 -3.015625 L 4.171875 -5.5 L 5.515625 -5.5 L 3.15625 -3.171875 L 5.703125 0 Z M 4.34375 0 "/></g></g></g><g fill="#000000" fill-opacity="1"><g transform="translate(6.700448, 8.074911)"><g><path d="M 5.890625 -2.78125 C 5.890625 -2.351562 5.820312 -1.960938 5.6875 -1.609375 C 5.5625 -1.253906 5.378906 -0.953125 5.140625 -0.703125 C 4.898438 -0.453125 4.609375 -0.257812 4.265625 -0.125 C 3.921875 0.0078125 3.53125 0.078125 3.09375 0.078125 C 2.632812 0.078125 2.234375 0.0078125 1.890625 -0.125 C 1.546875 -0.269531 1.253906 -0.46875 1.015625 -0.71875 C 0.785156 -0.976562 0.613281 -1.28125 0.5 -1.625 C 0.382812 -1.976562 0.328125 -2.363281 0.328125 -2.78125 C 0.328125 -3.207031 0.382812 -3.59375 0.5 -3.9375 C 0.625 -4.289062 0.804688 -4.585938 1.046875 -4.828125 C 1.285156 -5.066406 1.578125 -5.253906 1.921875 -5.390625 C 2.265625 -5.523438 2.660156 -5.59375 3.109375 -5.59375 C 3.554688 -5.59375 3.953125 -5.523438 4.296875 -5.390625 C 4.640625 -5.253906 4.925781 -5.0625 5.15625 -4.8125 C 5.394531 -4.570312 5.578125 -4.28125 5.703125 -3.9375 C 5.828125 -3.59375 5.890625 -3.207031 5.890625 -2.78125 Z M 4.71875 -2.78125 C 4.71875 -3.070312 4.679688 -3.332031 4.609375 -3.5625 C 4.535156 -3.789062 4.429688 -3.988281 4.296875 -4.15625 C 4.160156 -4.320312 3.992188 -4.453125 3.796875 -4.546875 C 3.597656 -4.640625 3.367188 -4.6875 3.109375 -4.6875 C 2.835938 -4.6875 2.597656 -4.640625 2.390625 -4.546875 C 2.191406 -4.453125 2.023438 -4.320312 1.890625 -4.15625 C 1.753906 -3.988281 1.648438 -3.789062 1.578125 -3.5625 C 1.515625 -3.332031 1.484375 -3.070312 1.484375 -2.78125 C 1.484375 -2.488281 1.519531 -2.222656 1.59375 -1.984375 C 1.664062 -1.753906 1.769531 -1.550781 1.90625 -1.375 C 2.039062 -1.207031 2.207031 -1.070312 2.40625 -0.96875 C 2.601562 -0.875 2.832031 -0.828125 3.09375 -0.828125 C 3.375 -0.828125 3.613281 -0.875 3.8125 -0.96875 C 4.019531 -1.070312 4.191406 -1.207031 4.328125 -1.375 C 4.460938 -1.550781 4.5625 -1.757812 4.625 -2 C 4.6875 -2.238281 4.71875 -2.5 4.71875 -2.78125 Z M 4.71875 -2.78125 "/></g></g></g><g fill="#000000" fill-opacity="1"><g transform="translate(12.547125, 8.074911)"><g><path d="M 3.109375 -0.828125 C 3.328125 -0.828125 3.515625 -0.859375 3.671875 -0.921875 C 3.828125 -0.984375 3.960938 -1.0625 4.078125 -1.15625 C 4.191406 -1.257812 4.285156 -1.375 4.359375 -1.5 C 4.441406 -1.625 4.507812 -1.75 4.5625 -1.875 L 5.5625 -1.5 C 5.476562 -1.300781 5.367188 -1.101562 5.234375 -0.90625 C 5.109375 -0.71875 4.945312 -0.550781 4.75 -0.40625 C 4.5625 -0.257812 4.332031 -0.140625 4.0625 -0.046875 C 3.789062 0.0351562 3.472656 0.078125 3.109375 0.078125 C 2.628906 0.078125 2.210938 0.0078125 1.859375 -0.125 C 1.515625 -0.269531 1.226562 -0.46875 1 -0.71875 C 0.769531 -0.976562 0.597656 -1.28125 0.484375 -1.625 C 0.378906 -1.976562 0.328125 -2.363281 0.328125 -2.78125 C 0.328125 -3.207031 0.378906 -3.59375 0.484375 -3.9375 C 0.597656 -4.289062 0.765625 -4.585938 0.984375 -4.828125 C 1.210938 -5.066406 1.5 -5.253906 1.84375 -5.390625 C 2.1875 -5.523438 2.59375 -5.59375 3.0625 -5.59375 C 3.414062 -5.59375 3.726562 -5.550781 4 -5.46875 C 4.269531 -5.394531 4.503906 -5.289062 4.703125 -5.15625 C 4.898438 -5.019531 5.0625 -4.859375 5.1875 -4.671875 C 5.3125 -4.484375 5.410156 -4.28125 5.484375 -4.0625 L 4.46875 -3.78125 C 4.4375 -3.894531 4.378906 -4.003906 4.296875 -4.109375 C 4.222656 -4.222656 4.128906 -4.320312 4.015625 -4.40625 C 3.898438 -4.488281 3.765625 -4.554688 3.609375 -4.609375 C 3.453125 -4.660156 3.273438 -4.6875 3.078125 -4.6875 C 2.796875 -4.6875 2.554688 -4.640625 2.359375 -4.546875 C 2.160156 -4.453125 1.992188 -4.320312 1.859375 -4.15625 C 1.734375 -3.988281 1.640625 -3.789062 1.578125 -3.5625 C 1.515625 -3.332031 1.484375 -3.070312 1.484375 -2.78125 C 1.484375 -2.488281 1.515625 -2.222656 1.578125 -1.984375 C 1.640625 -1.753906 1.734375 -1.550781 1.859375 -1.375 C 1.992188 -1.207031 2.160156 -1.070312 2.359375 -0.96875 C 2.566406 -0.875 2.816406 -0.828125 3.109375 -0.828125 Z M 3.109375 -0.828125 "/></g></g></g><g fill="#000000" fill-opacity="1"><g transform="translate(17.948488, 8.074911)"><g><path d="M 4.09375 0 L 4.09375 -2.359375 L 1.6875 -2.359375 L 1.6875 0 L 0.53125 0 L 0.53125 -5.5 L 1.6875 -5.5 L 1.6875 -3.3125 L 4.09375 -3.3125 L 4.09375 -5.5 L 5.234375 -5.5 L 5.234375 0 Z M 4.09375 0 "/></g></g></g><g fill="#000000" fill-opacity="1"><g transform="translate(23.349851, 8.074911)"><g><path d="M 0.53125 0 L 0.53125 -5.5 L 1.6875 -5.5 L 1.6875 0 Z M 0.53125 0 "/></g></g></g><g fill="#000000" fill-opacity="1"><g transform="translate(25.196516, 8.074911)"><g/></g></g><g fill="#000000" fill-opacity="1"><g transform="translate(27.043181, 8.074911)"><g><path d="M 5.109375 0 L 5.109375 -3.34375 C 5.109375 -3.46875 5.109375 -3.597656 5.109375 -3.734375 C 5.117188 -3.878906 5.125 -4.015625 5.125 -4.140625 C 5.132812 -4.273438 5.140625 -4.40625 5.140625 -4.53125 C 5.085938 -4.332031 5.035156 -4.140625 4.984375 -3.953125 C 4.960938 -3.867188 4.941406 -3.785156 4.921875 -3.703125 C 4.898438 -3.617188 4.878906 -3.535156 4.859375 -3.453125 C 4.835938 -3.378906 4.816406 -3.304688 4.796875 -3.234375 C 4.773438 -3.171875 4.753906 -3.117188 4.734375 -3.078125 L 3.75 0 L 2.921875 0 L 1.9375 -3.078125 C 1.914062 -3.117188 1.894531 -3.171875 1.875 -3.234375 C 1.851562 -3.304688 1.832031 -3.378906 1.8125 -3.453125 C 1.789062 -3.535156 1.769531 -3.617188 1.75 -3.703125 C 1.726562 -3.785156 1.703125 -3.867188 1.671875 -3.953125 C 1.617188 -4.140625 1.566406 -4.332031 1.515625 -4.53125 C 1.523438 -4.382812 1.53125 -4.238281 1.53125 -4.09375 C 1.539062 -3.96875 1.546875 -3.832031 1.546875 -3.6875 C 1.554688 -3.550781 1.5625 -3.4375 1.5625 -3.34375 L 1.5625 0 L 0.53125 0 L 0.53125 -5.5 L 2.078125 -5.5 L 3.0625 -2.421875 C 3.09375 -2.347656 3.117188 -2.25 3.140625 -2.125 C 3.171875 -2.007812 3.203125 -1.898438 3.234375 -1.796875 C 3.265625 -1.660156 3.300781 -1.523438 3.34375 -1.390625 C 3.375 -1.523438 3.40625 -1.65625 3.4375 -1.78125 C 3.457031 -1.832031 3.472656 -1.882812 3.484375 -1.9375 C 3.503906 -2 3.519531 -2.054688 3.53125 -2.109375 C 3.550781 -2.171875 3.566406 -2.222656 3.578125 -2.265625 C 3.597656 -2.316406 3.613281 -2.363281 3.625 -2.40625 L 4.59375 -5.5 L 6.125 -5.5 L 6.125 0 Z M 5.109375 0 "/></g></g></g><g fill="#000000" fill-opacity="1"><g transform="translate(33.331266, 8.074911)"><g><path d="M 0.53125 0 L 0.53125 -5.5 L 4.859375 -5.5 L 4.859375 -4.609375 L 1.6875 -4.609375 L 1.6875 -3.234375 L 4.625 -3.234375 L 4.625 -2.34375 L 1.6875 -2.34375 L 1.6875 -0.890625 L 5.03125 -0.890625 L 5.03125 0 Z M 0.53125 0 "/></g></g></g><g fill="#000000" fill-opacity="1"><g transform="translate(38.291221, 8.074911)"><g><path d="M 3.015625 -4.609375 L 3.015625 0 L 1.875 0 L 1.875 -4.609375 L 0.09375 -4.609375 L 0.09375 -5.5 L 4.796875 -5.5 L 4.796875 -4.609375 Z M 3.015625 -4.609375 "/></g></g></g><g fill="#000000" fill-opacity="1"><g transform="translate(42.801956, 8.074911)"><g><path d="M 4.3125 0 L 3.046875 -2.09375 L 1.6875 -2.09375 L 1.6875 0 L 0.53125 0 L 0.53125 -5.5 L 3.28125 -5.5 C 3.625 -5.5 3.925781 -5.460938 4.1875 -5.390625 C 4.445312 -5.316406 4.660156 -5.207031 4.828125 -5.0625 C 5.003906 -4.914062 5.132812 -4.742188 5.21875 -4.546875 C 5.300781 -4.347656 5.34375 -4.117188 5.34375 -3.859375 C 5.34375 -3.660156 5.3125 -3.472656 5.25 -3.296875 C 5.1875 -3.128906 5.097656 -2.976562 4.984375 -2.84375 C 4.878906 -2.707031 4.753906 -2.59375 4.609375 -2.5 C 4.460938 -2.414062 4.300781 -2.351562 4.125 -2.3125 L 5.609375 0 Z M 4.1875 -3.8125 C 4.1875 -4.082031 4.097656 -4.28125 3.921875 -4.40625 C 3.742188 -4.539062 3.492188 -4.609375 3.171875 -4.609375 L 1.6875 -4.609375 L 1.6875 -2.984375 L 3.203125 -2.984375 C 3.367188 -2.984375 3.515625 -3.003906 3.640625 -3.046875 C 3.765625 -3.085938 3.863281 -3.144531 3.9375 -3.21875 C 4.019531 -3.289062 4.082031 -3.378906 4.125 -3.484375 C 4.164062 -3.585938 4.1875 -3.695312 4.1875 -3.8125 Z M 4.1875 -3.8125 "/></g></g></g><g fill="#000000" fill-opacity="1"><g transform="translate(48.20332, 8.074911)"><g><path d="M 5.890625 -2.78125 C 5.890625 -2.351562 5.820312 -1.960938 5.6875 -1.609375 C 5.5625 -1.253906 5.378906 -0.953125 5.140625 -0.703125 C 4.898438 -0.453125 4.609375 -0.257812 4.265625 -0.125 C 3.921875 0.0078125 3.53125 0.078125 3.09375 0.078125 C 2.632812 0.078125 2.234375 0.0078125 1.890625 -0.125 C 1.546875 -0.269531 1.253906 -0.46875 1.015625 -0.71875 C 0.785156 -0.976562 0.613281 -1.28125 0.5 -1.625 C 0.382812 -1.976562 0.328125 -2.363281 0.328125 -2.78125 C 0.328125 -3.207031 0.382812 -3.59375 0.5 -3.9375 C 0.625 -4.289062 0.804688 -4.585938 1.046875 -4.828125 C 1.285156 -5.066406 1.578125 -5.253906 1.921875 -5.390625 C 2.265625 -5.523438 2.660156 -5.59375 3.109375 -5.59375 C 3.554688 -5.59375 3.953125 -5.523438 4.296875 -5.390625 C 4.640625 -5.253906 4.925781 -5.0625 5.15625 -4.8125 C 5.394531 -4.570312 5.578125 -4.28125 5.703125 -3.9375 C 5.828125 -3.59375 5.890625 -3.207031 5.890625 -2.78125 Z M 4.71875 -2.78125 C 4.71875 -3.070312 4.679688 -3.332031 4.609375 -3.5625 C 4.535156 -3.789062 4.429688 -3.988281 4.296875 -4.15625 C 4.160156 -4.320312 3.992188 -4.453125 3.796875 -4.546875 C 3.597656 -4.640625 3.367188 -4.6875 3.109375 -4.6875 C 2.835938 -4.6875 2.597656 -4.640625 2.390625 -4.546875 C 2.191406 -4.453125 2.023438 -4.320312 1.890625 -4.15625 C 1.753906 -3.988281 1.648438 -3.789062 1.578125 -3.5625 C 1.515625 -3.332031 1.484375 -3.070312 1.484375 -2.78125 C 1.484375 -2.488281 1.519531 -2.222656 1.59375 -1.984375 C 1.664062 -1.753906 1.769531 -1.550781 1.90625 -1.375 C 2.039062 -1.207031 2.207031 -1.070312 2.40625 -0.96875 C 2.601562 -0.875 2.832031 -0.828125 3.09375 -0.828125 C 3.375 -0.828125 3.613281 -0.875 3.8125 -0.96875 C 4.019531 -1.070312 4.191406 -1.207031 4.328125 -1.375 C 4.460938 -1.550781 4.5625 -1.757812 4.625 -2 C 4.6875 -2.238281 4.71875 -2.5 4.71875 -2.78125 Z M 4.71875 -2.78125 "/></g></g></g><g fill="#000000" fill-opacity="1"><g transform="translate(54.049996, 8.074911)"><g/></g></g><g fill="#000000" fill-opacity="1"><g transform="translate(55.896661, 8.074911)"><g><path d="M 4.3125 0 L 3.046875 -2.09375 L 1.6875 -2.09375 L 1.6875 0 L 0.53125 0 L 0.53125 -5.5 L 3.28125 -5.5 C 3.625 -5.5 3.925781 -5.460938 4.1875 -5.390625 C 4.445312 -5.316406 4.660156 -5.207031 4.828125 -5.0625 C 5.003906 -4.914062 5.132812 -4.742188 5.21875 -4.546875 C 5.300781 -4.347656 5.34375 -4.117188 5.34375 -3.859375 C 5.34375 -3.660156 5.3125 -3.472656 5.25 -3.296875 C 5.1875 -3.128906 5.097656 -2.976562 4.984375 -2.84375 C 4.878906 -2.707031 4.753906 -2.59375 4.609375 -2.5 C 4.460938 -2.414062 4.300781 -2.351562 4.125 -2.3125 L 5.609375 0 Z M 4.1875 -3.8125 C 4.1875 -4.082031 4.097656 -4.28125 3.921875 -4.40625 C 3.742188 -4.539062 3.492188 -4.609375 3.171875 -4.609375 L 1.6875 -4.609375 L 1.6875 -2.984375 L 3.203125 -2.984375 C 3.367188 -2.984375 3.515625 -3.003906 3.640625 -3.046875 C 3.765625 -3.085938 3.863281 -3.144531 3.9375 -3.21875 C 4.019531 -3.289062 4.082031 -3.378906 4.125 -3.484375 C 4.164062 -3.585938 4.1875 -3.695312 4.1875 -3.8125 Z M 4.1875 -3.8125 "/></g></g></g><g fill="#000000" fill-opacity="1"><g transform="translate(61.298024, 8.074911)"><g><path d="M 4.421875 0 L 3.9375 -1.40625 L 1.84375 -1.40625 L 1.359375 0 L 0.203125 0 L 2.203125 -5.5 L 3.5625 -5.5 L 5.5625 0 Z M 3.140625 -3.859375 C 3.109375 -3.953125 3.078125 -4.039062 3.046875 -4.125 C 3.015625 -4.21875 2.988281 -4.300781 2.96875 -4.375 C 2.945312 -4.457031 2.925781 -4.523438 2.90625 -4.578125 C 2.894531 -4.628906 2.890625 -4.65625 2.890625 -4.65625 C 2.890625 -4.644531 2.878906 -4.613281 2.859375 -4.5625 C 2.847656 -4.519531 2.832031 -4.457031 2.8125 -4.375 C 2.789062 -4.300781 2.765625 -4.21875 2.734375 -4.125 C 2.703125 -4.039062 2.671875 -3.953125 2.640625 -3.859375 L 2.09375 -2.28125 L 3.6875 -2.28125 Z M 3.140625 -3.859375 "/></g></g></g><g fill="#000000" fill-opacity="1"><g transform="translate(66.699387, 8.074911)"><g><path d="M 0.53125 0 L 0.53125 -5.5 L 1.6875 -5.5 L 1.6875 0 Z M 0.53125 0 "/></g></g></g><g fill="#000000" fill-opacity="1"><g transform="translate(68.546052, 8.074911)"><g><path d="M 0.53125 0 L 0.53125 -5.5 L 1.6875 -5.5 L 1.6875 -0.890625 L 4.640625 -0.890625 L 4.640625 0 Z M 0.53125 0 "/></g></g></g><g fill="#000000" fill-opacity="1"><g transform="translate(73.056788, 8.074911)"><g><path d="M 6.125 0 L 4.75 0 L 4.015625 -3.1875 C 3.984375 -3.28125 3.953125 -3.394531 3.921875 -3.53125 C 3.898438 -3.664062 3.878906 -3.796875 3.859375 -3.921875 C 3.828125 -4.054688 3.800781 -4.203125 3.78125 -4.359375 C 3.75 -4.203125 3.71875 -4.050781 3.6875 -3.90625 C 3.675781 -3.84375 3.664062 -3.78125 3.65625 -3.71875 C 3.644531 -3.65625 3.628906 -3.585938 3.609375 -3.515625 C 3.597656 -3.453125 3.585938 -3.390625 3.578125 -3.328125 C 3.566406 -3.273438 3.550781 -3.226562 3.53125 -3.1875 L 2.796875 0 L 1.421875 0 L 0.015625 -5.5 L 1.171875 -5.5 L 1.859375 -2.4375 C 1.898438 -2.269531 1.9375 -2.101562 1.96875 -1.9375 C 2.007812 -1.78125 2.039062 -1.640625 2.0625 -1.515625 C 2.09375 -1.367188 2.125 -1.226562 2.15625 -1.09375 C 2.195312 -1.28125 2.234375 -1.46875 2.265625 -1.65625 C 2.285156 -1.726562 2.300781 -1.804688 2.3125 -1.890625 C 2.332031 -1.972656 2.347656 -2.054688 2.359375 -2.140625 C 2.378906 -2.222656 2.398438 -2.300781 2.421875 -2.375 C 2.441406 -2.445312 2.457031 -2.515625 2.46875 -2.578125 L 3.140625 -5.5 L 4.4375 -5.5 L 5.125 -2.578125 C 5.144531 -2.515625 5.160156 -2.441406 5.171875 -2.359375 C 5.191406 -2.285156 5.207031 -2.207031 5.21875 -2.125 L 5.265625 -1.890625 C 5.285156 -1.804688 5.300781 -1.722656 5.3125 -1.640625 C 5.34375 -1.460938 5.375 -1.28125 5.40625 -1.09375 C 5.4375 -1.238281 5.46875 -1.390625 5.5 -1.546875 C 5.53125 -1.679688 5.5625 -1.828125 5.59375 -1.984375 C 5.632812 -2.140625 5.675781 -2.289062 5.71875 -2.4375 L 6.375 -5.5 L 7.546875 -5.5 Z M 6.125 0 "/></g></g></g><g fill="#000000" fill-opacity="1"><g transform="translate(80.231594, 8.074911)"><g><path d="M 4.421875 0 L 3.9375 -1.40625 L 1.84375 -1.40625 L 1.359375 0 L 0.203125 0 L 2.203125 -5.5 L 3.5625 -5.5 L 5.5625 0 Z M 3.140625 -3.859375 C 3.109375 -3.953125 3.078125 -4.039062 3.046875 -4.125 C 3.015625 -4.21875 2.988281 -4.300781 2.96875 -4.375 C 2.945312 -4.457031 2.925781 -4.523438 2.90625 -4.578125 C 2.894531 -4.628906 2.890625 -4.65625 2.890625 -4.65625 C 2.890625 -4.644531 2.878906 -4.613281 2.859375 -4.5625 C 2.847656 -4.519531 2.832031 -4.457031 2.8125 -4.375 C 2.789062 -4.300781 2.765625 -4.21875 2.734375 -4.125 C 2.703125 -4.039062 2.671875 -3.953125 2.640625 -3.859375 L 2.09375 -2.28125 L 3.6875 -2.28125 Z M 3.140625 -3.859375 "/></g></g></g><g fill="#000000" fill-opacity="1"><g transform="translate(85.632957, 8.074911)"><g><path d="M 3.25 -2.265625 L 3.25 0 L 2.09375 0 L 2.09375 -2.265625 L 0.140625 -5.5 L 1.34375 -5.5 L 2.671875 -3.171875 L 4 -5.5 L 5.203125 -5.5 Z M 3.25 -2.265625 "/></g></g></g><g fill="#000000" fill-opacity="1"><g transform="translate(90.592912, 8.074911)"><g/></g></g><g fill="#000000" fill-opacity="1"><g transform="translate(92.439577, 8.074911)"><g><path d="M 0.53125 0 L 0.53125 -5.5 L 1.6875 -5.5 L 1.6875 -0.890625 L 4.640625 -0.890625 L 4.640625 0 Z M 0.53125 0 "/></g></g></g><g fill="#000000" fill-opacity="1"><g transform="translate(96.950312, 8.074911)"><g><path d="M 0.53125 0 L 0.53125 -5.5 L 1.6875 -5.5 L 1.6875 0 Z M 0.53125 0 "/></g></g></g><g fill="#000000" fill-opacity="1"><g transform="translate(98.796977, 8.074911)"><g><path d="M 5.109375 0 L 5.109375 -3.34375 C 5.109375 -3.46875 5.109375 -3.597656 5.109375 -3.734375 C 5.117188 -3.878906 5.125 -4.015625 5.125 -4.140625 C 5.132812 -4.273438 5.140625 -4.40625 5.140625 -4.53125 C 5.085938 -4.332031 5.035156 -4.140625 4.984375 -3.953125 C 4.960938 -3.867188 4.941406 -3.785156 4.921875 -3.703125 C 4.898438 -3.617188 4.878906 -3.535156 4.859375 -3.453125 C 4.835938 -3.378906 4.816406 -3.304688 4.796875 -3.234375 C 4.773438 -3.171875 4.753906 -3.117188 4.734375 -3.078125 L 3.75 0 L 2.921875 0 L 1.9375 -3.078125 C 1.914062 -3.117188 1.894531 -3.171875 1.875 -3.234375 C 1.851562 -3.304688 1.832031 -3.378906 1.8125 -3.453125 C 1.789062 -3.535156 1.769531 -3.617188 1.75 -3.703125 C 1.726562 -3.785156 1.703125 -3.867188 1.671875 -3.953125 C 1.617188 -4.140625 1.566406 -4.332031 1.515625 -4.53125 C 1.523438 -4.382812 1.53125 -4.238281 1.53125 -4.09375 C 1.539062 -3.96875 1.546875 -3.832031 1.546875 -3.6875 C 1.554688 -3.550781 1.5625 -3.4375 1.5625 -3.34375 L 1.5625 0 L 0.53125 0 L 0.53125 -5.5 L 2.078125 -5.5 L 3.0625 -2.421875 C 3.09375 -2.347656 3.117188 -2.25 3.140625 -2.125 C 3.171875 -2.007812 3.203125 -1.898438 3.234375 -1.796875 C 3.265625 -1.660156 3.300781 -1.523438 3.34375 -1.390625 C 3.375 -1.523438 3.40625 -1.65625 3.4375 -1.78125 C 3.457031 -1.832031 3.472656 -1.882812 3.484375 -1.9375 C 3.503906 -2 3.519531 -2.054688 3.53125 -2.109375 C 3.550781 -2.171875 3.566406 -2.222656 3.578125 -2.265625 C 3.597656 -2.316406 3.613281 -2.363281 3.625 -2.40625 L 4.59375 -5.5 L 6.125 -5.5 L 6.125 0 Z M 5.109375 0 "/></g></g></g><g fill="#000000" fill-opacity="1"><g transform="translate(105.085062, 8.074911)"><g><path d="M 0.53125 0 L 0.53125 -5.5 L 1.6875 -5.5 L 1.6875 0 Z M 0.53125 0 "/></g></g></g><g fill="#000000" fill-opacity="1"><g transform="translate(106.931727, 8.074911)"><g><path d="M 3.015625 -4.609375 L 3.015625 0 L 1.875 0 L 1.875 -4.609375 L 0.09375 -4.609375 L 0.09375 -5.5 L 4.796875 -5.5 L 4.796875 -4.609375 Z M 3.015625 -4.609375 "/></g></g></g><g fill="#000000" fill-opacity="1"><g transform="translate(111.442462, 8.074911)"><g><path d="M 0.53125 0 L 0.53125 -5.5 L 4.859375 -5.5 L 4.859375 -4.609375 L 1.6875 -4.609375 L 1.6875 -3.234375 L 4.625 -3.234375 L 4.625 -2.34375 L 1.6875 -2.34375 L 1.6875 -0.890625 L 5.03125 -0.890625 L 5.03125 0 Z M 0.53125 0 "/></g></g></g><g fill="#000000" fill-opacity="1"><g transform="translate(116.402418, 8.074911)"><g><path d="M 5.4375 -2.796875 C 5.4375 -2.335938 5.367188 -1.929688 5.234375 -1.578125 C 5.097656 -1.234375 4.910156 -0.941406 4.671875 -0.703125 C 4.429688 -0.472656 4.144531 -0.296875 3.8125 -0.171875 C 3.488281 -0.0546875 3.140625 0 2.765625 0 L 0.53125 0 L 0.53125 -5.5 L 2.53125 -5.5 C 2.957031 -5.5 3.347656 -5.445312 3.703125 -5.34375 C 4.054688 -5.238281 4.363281 -5.070312 4.625 -4.84375 C 4.882812 -4.625 5.082031 -4.34375 5.21875 -4 C 5.363281 -3.664062 5.4375 -3.265625 5.4375 -2.796875 Z M 4.28125 -2.796875 C 4.28125 -3.117188 4.234375 -3.394531 4.140625 -3.625 C 4.054688 -3.851562 3.9375 -4.039062 3.78125 -4.1875 C 3.625 -4.332031 3.4375 -4.4375 3.21875 -4.5 C 3.007812 -4.570312 2.769531 -4.609375 2.5 -4.609375 L 1.6875 -4.609375 L 1.6875 -0.890625 L 2.671875 -0.890625 C 2.898438 -0.890625 3.113281 -0.929688 3.3125 -1.015625 C 3.507812 -1.097656 3.675781 -1.21875 3.8125 -1.375 C 3.957031 -1.53125 4.070312 -1.726562 4.15625 -1.96875 C 4.238281 -2.207031 4.28125 -2.484375 4.28125 -2.796875 Z M 4.28125 -2.796875 "/></g></g></g></g></g></svg>