<svg xmlns="http://www.w3.org/2000/svg" xmlns:xlink="http://www.w3.org/1999/xlink" width="500" zoomAndPan="magnify" viewBox="0 0 375 374.999991" height="500" preserveAspectRatio="xMidYMid meet" version="1.0"><defs><g/><clipPath id="d4edb3735d"><path d="M 185.585938 168.101562 L 239.574219 168.101562 L 239.574219 189.851562 L 185.585938 189.851562 Z M 185.585938 168.101562 " clip-rule="nonzero"/></clipPath><clipPath id="25cd5c4a5f"><path d="M 196.296875 168.101562 L 228.90625 168.101562 C 231.746094 168.101562 234.472656 169.230469 236.480469 171.238281 C 238.488281 173.25 239.617188 175.972656 239.617188 178.8125 C 239.617188 181.652344 238.488281 184.378906 236.480469 186.386719 C 234.472656 188.394531 231.746094 189.523438 228.90625 189.523438 L 196.296875 189.523438 C 193.457031 189.523438 190.730469 188.394531 188.722656 186.386719 C 186.714844 184.378906 185.585938 181.652344 185.585938 178.8125 C 185.585938 175.972656 186.714844 173.25 188.722656 171.238281 C 190.730469 169.230469 193.457031 168.101562 196.296875 168.101562 Z M 196.296875 168.101562 " clip-rule="nonzero"/></clipPath><clipPath id="23d26d4030"><path d="M 185.570312 178.878906 L 189.320312 178.878906 L 189.320312 208.878906 L 185.570312 208.878906 Z M 185.570312 178.878906 " clip-rule="nonzero"/></clipPath><clipPath id="d51ef95eba"><path d="M 185.570312 207.003906 L 185.570312 180.695312 C 185.570312 179.660156 186.410156 178.820312 187.445312 178.820312 C 188.480469 178.820312 189.320312 179.660156 189.320312 180.695312 L 189.320312 207.003906 C 189.320312 208.039062 188.480469 208.878906 187.445312 208.878906 C 186.410156 208.878906 185.570312 208.039062 185.570312 207.003906 Z M 185.570312 207.003906 " clip-rule="nonzero"/></clipPath><clipPath id="29ef627a4f"><path d="M 187 185 L 212 185 L 212 210 L 187 210 Z M 187 185 " clip-rule="nonzero"/></clipPath><clipPath id="6a0f096c6e"><path d="M 209.460938 210.519531 L 186.65625 187.714844 L 189.308594 185.0625 L 212.109375 207.867188 Z M 209.460938 210.519531 " clip-rule="nonzero"/></clipPath><clipPath id="a394faf7af"><path d="M 209.460938 210.519531 L 185.847656 186.90625 L 189.574219 183.179688 L 213.1875 206.789062 Z M 209.460938 210.519531 " clip-rule="nonzero"/></clipPath><clipPath id="63f20ca761"><path d="M 208.132812 209.191406 L 188.023438 189.082031 C 187.289062 188.347656 187.289062 187.164062 188.023438 186.429688 C 188.753906 185.699219 189.941406 185.699219 190.671875 186.429688 L 210.785156 206.542969 C 211.515625 207.273438 211.515625 208.460938 210.785156 209.191406 C 210.054688 209.925781 208.867188 209.925781 208.132812 209.191406 Z M 208.132812 209.191406 " clip-rule="nonzero"/></clipPath></defs><g clip-path="url(#d4edb3735d)"><g clip-path="url(#25cd5c4a5f)"><path stroke-linecap="butt" transform="matrix(0.75, 0, 0, 0.75, 185.585736, 168.102251)" fill="none" stroke-linejoin="miter" d="M 14.28152 -0.000917415 L 57.76069 -0.000917415 C 61.547148 -0.000917415 65.182565 1.504291 67.859649 4.181375 C 70.536732 6.863666 72.041941 10.493875 72.041941 14.280334 C 72.041941 18.066792 70.536732 21.702209 67.859649 24.379293 C 65.182565 27.056376 61.547148 28.561584 57.76069 28.561584 L 14.28152 28.561584 C 10.495062 28.561584 6.859645 27.056376 4.182561 24.379293 C 1.505478 21.702209 0.000269316 18.066792 0.000269316 14.280334 C 0.000269316 10.493875 1.505478 6.863666 4.182561 4.181375 C 6.859645 1.504291 10.495062 -0.000917415 14.28152 -0.000917415 Z M 14.28152 -0.000917415 " stroke="#000000" stroke-width="10" stroke-opacity="1" stroke-miterlimit="4"/></g></g><g fill="#000000" fill-opacity="1"><g transform="translate(84.678544, 207.749986)"><g><path d="M 19.859375 -19.734375 L 11.28125 -11.046875 L 11.28125 0 L 6.84375 0 L 6.84375 -42 L 11.28125 -42 L 11.28125 -16.625 L 35.9375 -42 L 41.046875 -42 L 22.859375 -22.984375 L 42.296875 0 L 37.015625 0 Z M 19.859375 -19.734375 "/></g></g></g><g fill="#000000" fill-opacity="1"><g transform="translate(127.338499, 207.749986)"><g><path d="M 50.453125 -42 L 50.453125 0 L 46.203125 0 L 46.203125 -33.59375 L 29.703125 -5.34375 L 27.59375 -5.34375 L 11.09375 -33.421875 L 11.09375 0 L 6.84375 0 L 6.84375 -42 L 10.5 -42 L 28.734375 -10.859375 L 46.796875 -42 Z M 50.453125 -42 "/></g></g></g><g fill="#000000" fill-opacity="1"><g transform="translate(240.420706, 207.749986)"><g><path d="M 6.84375 -42 L 11.28125 -42 L 11.28125 -3.84375 L 34.796875 -3.84375 L 34.796875 0 L 6.84375 0 Z M 6.84375 -42 "/></g></g></g><g clip-path="url(#23d26d4030)"><g clip-path="url(#d51ef95eba)"><path stroke-linecap="butt" transform="matrix(0, -0.75, 0.75, 0, 185.570208, 208.87988)" fill="none" stroke-linejoin="miter" d="M 2.501298 0.000139981 L 37.579426 0.000139981 C 38.959634 0.000139981 40.079426 1.119932 40.079426 2.50014 C 40.079426 3.880349 38.959634 5.00014 37.579426 5.00014 L 2.501298 5.00014 C 1.12109 5.00014 0.00129818 3.880349 0.00129818 2.50014 C 0.00129818 1.119932 1.12109 0.000139981 2.501298 0.000139981 Z M 2.501298 0.000139981 " stroke="#000000" stroke-width="10" stroke-opacity="1" stroke-miterlimit="4"/></g></g><g clip-path="url(#29ef627a4f)"><g clip-path="url(#6a0f096c6e)"><g clip-path="url(#a394faf7af)"><g clip-path="url(#63f20ca761)"><path stroke-linecap="butt" transform="matrix(-0.53033, -0.53033, 0.53033, -0.53033, 209.45964, 210.518849)" fill="none" stroke-linejoin="miter" d="M 2.502471 0.000580092 L 40.421071 0.000580092 C 41.805821 0.000580092 42.921724 1.116483 42.921724 2.501234 C 42.921724 3.878619 41.802139 4.998204 40.424753 4.998204 L 2.498788 4.998204 C 1.121403 4.998204 0.001817 3.878619 0.001817 2.501234 C -0.00186585 1.120166 1.11772 0.000580092 2.502471 0.000580092 Z M 2.502471 0.000580092 " stroke="#000000" stroke-width="10" stroke-opacity="1" stroke-miterlimit="4"/></g></g></g></g></svg>