<svg xmlns="http://www.w3.org/2000/svg" xmlns:xlink="http://www.w3.org/1999/xlink" width="500" zoomAndPan="magnify" viewBox="0 0 375 374.999991" height="500" preserveAspectRatio="xMidYMid meet" version="1.0"><defs><g/><clipPath id="3e88a4dc96"><path d="M 189.222656 168.769531 L 237.960938 168.769531 L 237.960938 188.269531 L 189.222656 188.269531 Z M 189.222656 168.769531 " clip-rule="nonzero"/></clipPath><clipPath id="27bdcdaaa1"><path d="M 198.914062 168.769531 L 228.417969 168.769531 C 230.988281 168.769531 233.453125 169.789062 235.273438 171.605469 C 237.089844 173.425781 238.109375 175.890625 238.109375 178.460938 C 238.109375 181.03125 237.089844 183.496094 235.273438 185.3125 C 233.453125 187.128906 230.988281 188.152344 228.417969 188.152344 L 198.914062 188.152344 C 196.34375 188.152344 193.878906 187.128906 192.058594 185.3125 C 190.242188 183.496094 189.222656 181.03125 189.222656 178.460938 C 189.222656 175.890625 190.242188 173.425781 192.058594 171.605469 C 193.878906 169.789062 196.34375 168.769531 198.914062 168.769531 Z M 198.914062 168.769531 " clip-rule="nonzero"/></clipPath><clipPath id="cb8b932aa7"><rect x="0" width="92" y="0" height="68"/></clipPath><clipPath id="b3daa426fb"><rect x="0" width="34" y="0" height="68"/></clipPath><clipPath id="4b0fd8528f"><path d="M 189.210938 178.664062 L 192.960938 178.664062 L 192.960938 205.640625 L 189.210938 205.640625 Z M 189.210938 178.664062 " clip-rule="nonzero"/></clipPath><clipPath id="6216e9e8c9"><path d="M 189.210938 203.945312 L 189.210938 180.179688 C 189.210938 179.246094 189.96875 178.488281 190.902344 178.488281 C 191.839844 178.488281 192.597656 179.246094 192.597656 180.179688 L 192.597656 203.945312 C 192.597656 204.882812 191.839844 205.640625 190.902344 205.640625 C 189.96875 205.640625 189.210938 204.882812 189.210938 203.945312 Z M 189.210938 203.945312 " clip-rule="nonzero"/></clipPath><clipPath id="844453eafc"><path d="M 190 184 L 213 184 L 213 207 L 190 207 Z M 190 184 " clip-rule="nonzero"/></clipPath><clipPath id="8a9e452f44"><path d="M 210.828125 207.144531 L 190.144531 186.460938 L 192.796875 183.8125 L 213.480469 204.492188 Z M 210.828125 207.144531 " clip-rule="nonzero"/></clipPath><clipPath id="d1095c1627"><path d="M 210.808594 207.125 L 189.480469 185.796875 L 192.847656 182.429688 L 214.175781 203.757812 Z M 210.808594 207.125 " clip-rule="nonzero"/></clipPath><clipPath id="78b5b6ccef"><path d="M 209.613281 205.929688 L 191.445312 187.761719 C 190.785156 187.101562 190.785156 186.027344 191.445312 185.367188 C 192.109375 184.707031 193.179688 184.707031 193.839844 185.367188 L 212.007812 203.535156 C 212.667969 204.195312 212.667969 205.265625 212.007812 205.929688 C 211.347656 206.589844 210.273438 206.589844 209.613281 205.929688 Z M 209.613281 205.929688 " clip-rule="nonzero"/></clipPath></defs><g clip-path="url(#3e88a4dc96)"><g clip-path="url(#27bdcdaaa1)"><path stroke-linecap="butt" transform="matrix(0.75, 0, 0, 0.75, 189.221754, 168.768183)" fill="none" stroke-linejoin="miter" d="M 12.923079 0.00179724 L 52.261626 0.00179724 C 55.68871 0.00179724 58.975168 1.361172 61.402252 3.783048 C 63.824127 6.210131 65.183502 9.49659 65.183502 12.923674 C 65.183502 16.350758 63.824127 19.637216 61.402252 22.059092 C 58.975168 24.480967 55.68871 25.845551 52.261626 25.845551 L 12.923079 25.845551 C 9.495995 25.845551 6.209537 24.480967 3.782453 22.059092 C 1.360578 19.637216 0.00120237 16.350758 0.00120237 12.923674 C 0.00120237 9.49659 1.360578 6.210131 3.782453 3.783048 C 6.209537 1.361172 9.495995 0.00179724 12.923079 0.00179724 Z M 12.923079 0.00179724 " stroke="#000000" stroke-width="10" stroke-opacity="1" stroke-miterlimit="4"/></g></g><g transform="matrix(1, 0, 0, 1, 97, 152)"><g clip-path="url(#cb8b932aa7)"><g fill="#000000" fill-opacity="1"><g transform="translate(0.913201, 52.644274)"><g><path d="M 17.96875 -17.859375 L 10.203125 -9.984375 L 10.203125 0 L 6.1875 0 L 6.1875 -38.015625 L 10.203125 -38.015625 L 10.203125 -15.046875 L 32.53125 -38.015625 L 37.140625 -38.015625 L 20.6875 -20.796875 L 38.28125 0 L 33.5 0 Z M 17.96875 -17.859375 "/></g></g></g><g fill="#000000" fill-opacity="1"><g transform="translate(39.514973, 52.644274)"><g><path d="M 45.65625 -38.015625 L 45.65625 0 L 41.8125 0 L 41.8125 -30.40625 L 26.875 -4.828125 L 24.984375 -4.828125 L 10.046875 -30.25 L 10.046875 0 L 6.1875 0 L 6.1875 -38.015625 L 9.5 -38.015625 L 26.015625 -9.828125 L 42.359375 -38.015625 Z M 45.65625 -38.015625 "/></g></g></g></g></g><g transform="matrix(1, 0, 0, 1, 238, 152)"><g clip-path="url(#b3daa426fb)"><g fill="#000000" fill-opacity="1"><g transform="translate(0.839821, 52.644274)"><g><path d="M 6.1875 -38.015625 L 10.203125 -38.015625 L 10.203125 -3.46875 L 31.5 -3.46875 L 31.5 0 L 6.1875 0 Z M 6.1875 -38.015625 "/></g></g></g></g></g><g clip-path="url(#4b0fd8528f)"><g clip-path="url(#6216e9e8c9)"><path stroke-linecap="butt" transform="matrix(0, -0.75, 0.75, 0, 189.210182, 205.639484)" fill="none" stroke-linejoin="miter" d="M 2.258895 0.00100777 L 33.946396 0.00100777 C 35.191187 0.00100777 36.201604 1.011424 36.201604 2.256216 C 36.201604 3.506216 35.191187 4.516633 33.946396 4.516633 L 2.258895 4.516633 C 1.008895 4.516633 -0.0015212 3.506216 -0.0015212 2.256216 C -0.0015212 1.011424 1.008895 0.00100777 2.258895 0.00100777 Z M 2.258895 0.00100777 " stroke="#000000" stroke-width="10" stroke-opacity="1" stroke-miterlimit="4"/></g></g><g clip-path="url(#844453eafc)"><g clip-path="url(#8a9e452f44)"><g clip-path="url(#d1095c1627)"><g clip-path="url(#78b5b6ccef)"><path stroke-linecap="butt" transform="matrix(-0.53033, -0.53033, 0.53033, -0.53033, 210.80983, 207.126183)" fill="none" stroke-linejoin="miter" d="M 2.256184 -0.0000498822 L 36.514036 -0.0000498822 C 37.758839 -0.0000498822 38.771622 1.012733 38.771622 2.257536 C 38.767939 3.506021 37.758839 4.515122 36.514036 4.515122 L 2.256184 4.515122 C 1.011381 4.515122 0.00228094 3.506021 -0.0014019 2.257536 C -0.0014019 1.012733 1.011381 -0.0000498822 2.256184 -0.0000498822 Z M 2.256184 -0.0000498822 " stroke="#000000" stroke-width="10" stroke-opacity="1" stroke-miterlimit="4"/></g></g></g></g><g fill="#000000" fill-opacity="1"><g transform="translate(103.595066, 218.504664)"><g><path d="M 3.3125 -3.296875 L 1.875 -1.84375 L 1.875 0 L 1.140625 0 L 1.140625 -7 L 1.875 -7 L 1.875 -2.765625 L 5.984375 -7 L 6.84375 -7 L 3.8125 -3.828125 L 7.046875 0 L 6.171875 0 Z M 3.3125 -3.296875 "/></g></g></g><g fill="#000000" fill-opacity="1"><g transform="translate(110.45232, 218.504664)"><g><path d="M 4.203125 0.0625 C 3.503906 0.0625 2.875 -0.09375 2.3125 -0.40625 C 1.75 -0.71875 1.304688 -1.140625 0.984375 -1.671875 C 0.671875 -2.210938 0.515625 -2.820312 0.515625 -3.5 C 0.515625 -4.175781 0.671875 -4.78125 0.984375 -5.3125 C 1.304688 -5.851562 1.75 -6.28125 2.3125 -6.59375 C 2.875 -6.90625 3.503906 -7.0625 4.203125 -7.0625 C 4.890625 -7.0625 5.507812 -6.90625 6.0625 -6.59375 C 6.625 -6.289062 7.066406 -5.867188 7.390625 -5.328125 C 7.710938 -4.785156 7.875 -4.175781 7.875 -3.5 C 7.875 -2.820312 7.710938 -2.210938 7.390625 -1.671875 C 7.066406 -1.128906 6.625 -0.703125 6.0625 -0.390625 C 5.507812 -0.0859375 4.890625 0.0625 4.203125 0.0625 Z M 4.203125 -0.59375 C 4.753906 -0.59375 5.253906 -0.71875 5.703125 -0.96875 C 6.148438 -1.21875 6.5 -1.566406 6.75 -2.015625 C 7 -2.460938 7.125 -2.957031 7.125 -3.5 C 7.125 -4.039062 7 -4.535156 6.75 -4.984375 C 6.5 -5.429688 6.148438 -5.78125 5.703125 -6.03125 C 5.253906 -6.28125 4.753906 -6.40625 4.203125 -6.40625 C 3.648438 -6.40625 3.144531 -6.28125 2.6875 -6.03125 C 2.238281 -5.78125 1.882812 -5.429688 1.625 -4.984375 C 1.375 -4.535156 1.25 -4.039062 1.25 -3.5 C 1.25 -2.957031 1.375 -2.460938 1.625 -2.015625 C 1.882812 -1.566406 2.238281 -1.21875 2.6875 -0.96875 C 3.144531 -0.71875 3.648438 -0.59375 4.203125 -0.59375 Z M 4.203125 -0.59375 "/></g></g></g><g fill="#000000" fill-opacity="1"><g transform="translate(118.839008, 218.504664)"><g><path d="M 4.1875 0.0625 C 3.488281 0.0625 2.859375 -0.0859375 2.296875 -0.390625 C 1.742188 -0.703125 1.304688 -1.128906 0.984375 -1.671875 C 0.671875 -2.210938 0.515625 -2.820312 0.515625 -3.5 C 0.515625 -4.175781 0.671875 -4.785156 0.984375 -5.328125 C 1.304688 -5.867188 1.75 -6.289062 2.3125 -6.59375 C 2.875 -6.90625 3.5 -7.0625 4.1875 -7.0625 C 4.707031 -7.0625 5.1875 -6.972656 5.625 -6.796875 C 6.070312 -6.628906 6.445312 -6.378906 6.75 -6.046875 L 6.28125 -5.5625 C 5.726562 -6.125 5.035156 -6.40625 4.203125 -6.40625 C 3.648438 -6.40625 3.144531 -6.273438 2.6875 -6.015625 C 2.238281 -5.765625 1.882812 -5.414062 1.625 -4.96875 C 1.375 -4.53125 1.25 -4.039062 1.25 -3.5 C 1.25 -2.957031 1.375 -2.460938 1.625 -2.015625 C 1.882812 -1.578125 2.238281 -1.226562 2.6875 -0.96875 C 3.144531 -0.71875 3.648438 -0.59375 4.203125 -0.59375 C 5.046875 -0.59375 5.738281 -0.875 6.28125 -1.4375 L 6.75 -0.96875 C 6.445312 -0.632812 6.070312 -0.378906 5.625 -0.203125 C 5.175781 -0.0234375 4.695312 0.0625 4.1875 0.0625 Z M 4.1875 0.0625 "/></g></g></g><g fill="#000000" fill-opacity="1"><g transform="translate(126.026171, 218.504664)"><g><path d="M 6.984375 -7 L 6.984375 0 L 6.265625 0 L 6.265625 -3.234375 L 1.875 -3.234375 L 1.875 0 L 1.140625 0 L 1.140625 -7 L 1.875 -7 L 1.875 -3.875 L 6.265625 -3.875 L 6.265625 -7 Z M 6.984375 -7 "/></g></g></g><g fill="#000000" fill-opacity="1"><g transform="translate(134.152964, 218.504664)"><g><path d="M 1.140625 -7 L 1.875 -7 L 1.875 0 L 1.140625 0 Z M 1.140625 -7 "/></g></g></g><g fill="#000000" fill-opacity="1"><g transform="translate(137.171778, 218.504664)"><g/></g></g><g fill="#000000" fill-opacity="1"><g transform="translate(139.790746, 218.504664)"><g><path d="M 8.40625 -7 L 8.40625 0 L 7.703125 0 L 7.703125 -5.59375 L 4.953125 -0.890625 L 4.59375 -0.890625 L 1.84375 -5.5625 L 1.84375 0 L 1.140625 0 L 1.140625 -7 L 1.75 -7 L 4.796875 -1.8125 L 7.796875 -7 Z M 8.40625 -7 "/></g></g></g><g fill="#000000" fill-opacity="1"><g transform="translate(149.336984, 218.504664)"><g><path d="M 6.09375 -0.640625 L 6.09375 0 L 1.140625 0 L 1.140625 -7 L 5.9375 -7 L 5.9375 -6.359375 L 1.875 -6.359375 L 1.875 -3.875 L 5.5 -3.875 L 5.5 -3.234375 L 1.875 -3.234375 L 1.875 -0.640625 Z M 6.09375 -0.640625 "/></g></g></g><g fill="#000000" fill-opacity="1"><g transform="translate(156.02435, 218.504664)"><g><path d="M 2.5 -6.359375 L 0.046875 -6.359375 L 0.046875 -7 L 5.703125 -7 L 5.703125 -6.359375 L 3.234375 -6.359375 L 3.234375 0 L 2.5 0 Z M 2.5 -6.359375 "/></g></g></g><g fill="#000000" fill-opacity="1"><g transform="translate(161.762085, 218.504664)"><g><path d="M 5.921875 0 L 4.3125 -2.25 C 4.132812 -2.226562 3.953125 -2.21875 3.765625 -2.21875 L 1.875 -2.21875 L 1.875 0 L 1.140625 0 L 1.140625 -7 L 3.765625 -7 C 4.648438 -7 5.347656 -6.785156 5.859375 -6.359375 C 6.367188 -5.929688 6.625 -5.34375 6.625 -4.59375 C 6.625 -4.050781 6.484375 -3.59375 6.203125 -3.21875 C 5.929688 -2.84375 5.535156 -2.570312 5.015625 -2.40625 L 6.734375 0 Z M 3.734375 -2.84375 C 4.429688 -2.84375 4.960938 -2.992188 5.328125 -3.296875 C 5.691406 -3.609375 5.875 -4.039062 5.875 -4.59375 C 5.875 -5.164062 5.691406 -5.601562 5.328125 -5.90625 C 4.960938 -6.207031 4.429688 -6.359375 3.734375 -6.359375 L 1.875 -6.359375 L 1.875 -2.84375 Z M 3.734375 -2.84375 "/></g></g></g><g fill="#000000" fill-opacity="1"><g transform="translate(168.989235, 218.504664)"><g><path d="M 4.203125 0.0625 C 3.503906 0.0625 2.875 -0.09375 2.3125 -0.40625 C 1.75 -0.71875 1.304688 -1.140625 0.984375 -1.671875 C 0.671875 -2.210938 0.515625 -2.820312 0.515625 -3.5 C 0.515625 -4.175781 0.671875 -4.78125 0.984375 -5.3125 C 1.304688 -5.851562 1.75 -6.28125 2.3125 -6.59375 C 2.875 -6.90625 3.503906 -7.0625 4.203125 -7.0625 C 4.890625 -7.0625 5.507812 -6.90625 6.0625 -6.59375 C 6.625 -6.289062 7.066406 -5.867188 7.390625 -5.328125 C 7.710938 -4.785156 7.875 -4.175781 7.875 -3.5 C 7.875 -2.820312 7.710938 -2.210938 7.390625 -1.671875 C 7.066406 -1.128906 6.625 -0.703125 6.0625 -0.390625 C 5.507812 -0.0859375 4.890625 0.0625 4.203125 0.0625 Z M 4.203125 -0.59375 C 4.753906 -0.59375 5.253906 -0.71875 5.703125 -0.96875 C 6.148438 -1.21875 6.5 -1.566406 6.75 -2.015625 C 7 -2.460938 7.125 -2.957031 7.125 -3.5 C 7.125 -4.039062 7 -4.535156 6.75 -4.984375 C 6.5 -5.429688 6.148438 -5.78125 5.703125 -6.03125 C 5.253906 -6.28125 4.753906 -6.40625 4.203125 -6.40625 C 3.648438 -6.40625 3.144531 -6.28125 2.6875 -6.03125 C 2.238281 -5.78125 1.882812 -5.429688 1.625 -4.984375 C 1.375 -4.535156 1.25 -4.039062 1.25 -3.5 C 1.25 -2.957031 1.375 -2.460938 1.625 -2.015625 C 1.882812 -1.566406 2.238281 -1.21875 2.6875 -0.96875 C 3.144531 -0.71875 3.648438 -0.59375 4.203125 -0.59375 Z M 4.203125 -0.59375 "/></g></g></g><g fill="#000000" fill-opacity="1"><g transform="translate(177.375922, 218.504664)"><g/></g></g><g fill="#000000" fill-opacity="1"><g transform="translate(179.994891, 218.504664)"><g><path d="M 5.921875 0 L 4.3125 -2.25 C 4.132812 -2.226562 3.953125 -2.21875 3.765625 -2.21875 L 1.875 -2.21875 L 1.875 0 L 1.140625 0 L 1.140625 -7 L 3.765625 -7 C 4.648438 -7 5.347656 -6.785156 5.859375 -6.359375 C 6.367188 -5.929688 6.625 -5.34375 6.625 -4.59375 C 6.625 -4.050781 6.484375 -3.59375 6.203125 -3.21875 C 5.929688 -2.84375 5.535156 -2.570312 5.015625 -2.40625 L 6.734375 0 Z M 3.734375 -2.84375 C 4.429688 -2.84375 4.960938 -2.992188 5.328125 -3.296875 C 5.691406 -3.609375 5.875 -4.039062 5.875 -4.59375 C 5.875 -5.164062 5.691406 -5.601562 5.328125 -5.90625 C 4.960938 -6.207031 4.429688 -6.359375 3.734375 -6.359375 L 1.875 -6.359375 L 1.875 -2.84375 Z M 3.734375 -2.84375 "/></g></g></g><g fill="#000000" fill-opacity="1"><g transform="translate(187.222041, 218.504664)"><g><path d="M 5.53125 -1.875 L 1.625 -1.875 L 0.796875 0 L 0.015625 0 L 3.21875 -7 L 3.953125 -7 L 7.15625 0 L 6.375 0 Z M 5.265625 -2.46875 L 3.578125 -6.234375 L 1.90625 -2.46875 Z M 5.265625 -2.46875 "/></g></g></g><g fill="#000000" fill-opacity="1"><g transform="translate(194.389212, 218.504664)"><g><path d="M 1.140625 -7 L 1.875 -7 L 1.875 0 L 1.140625 0 Z M 1.140625 -7 "/></g></g></g><g fill="#000000" fill-opacity="1"><g transform="translate(197.408026, 218.504664)"><g><path d="M 1.140625 -7 L 1.875 -7 L 1.875 -0.640625 L 5.796875 -0.640625 L 5.796875 0 L 1.140625 0 Z M 1.140625 -7 "/></g></g></g><g fill="#000000" fill-opacity="1"><g transform="translate(202.76584, 218.504664)"><g><path d="M 10.75 -7 L 8.390625 0 L 7.609375 0 L 5.5625 -5.96875 L 3.5 0 L 2.734375 0 L 0.375 -7 L 1.125 -7 L 3.15625 -0.984375 L 5.234375 -7 L 5.9375 -7 L 7.984375 -0.953125 L 10.046875 -7 Z M 10.75 -7 "/></g></g></g><g fill="#000000" fill-opacity="1"><g transform="translate(213.511555, 218.504664)"><g><path d="M 5.53125 -1.875 L 1.625 -1.875 L 0.796875 0 L 0.015625 0 L 3.21875 -7 L 3.953125 -7 L 7.15625 0 L 6.375 0 Z M 5.265625 -2.46875 L 3.578125 -6.234375 L 1.90625 -2.46875 Z M 5.265625 -2.46875 "/></g></g></g><g fill="#000000" fill-opacity="1"><g transform="translate(220.268833, 218.504664)"><g><path d="M 3.546875 -2.421875 L 3.546875 0 L 2.8125 0 L 2.8125 -2.421875 L 0.015625 -7 L 0.796875 -7 L 3.203125 -3.0625 L 5.59375 -7 L 6.34375 -7 Z M 3.546875 -2.421875 "/></g></g></g><g fill="#000000" fill-opacity="1"><g transform="translate(226.616333, 218.504664)"><g/></g></g><g fill="#000000" fill-opacity="1"><g transform="translate(229.235302, 218.504664)"><g><path d="M 1.140625 -7 L 1.875 -7 L 1.875 -0.640625 L 5.796875 -0.640625 L 5.796875 0 L 1.140625 0 Z M 1.140625 -7 "/></g></g></g><g fill="#000000" fill-opacity="1"><g transform="translate(235.122977, 218.504664)"><g><path d="M 1.140625 -7 L 1.875 -7 L 1.875 0 L 1.140625 0 Z M 1.140625 -7 "/></g></g></g><g fill="#000000" fill-opacity="1"><g transform="translate(238.141791, 218.504664)"><g><path d="M 8.40625 -7 L 8.40625 0 L 7.703125 0 L 7.703125 -5.59375 L 4.953125 -0.890625 L 4.59375 -0.890625 L 1.84375 -5.5625 L 1.84375 0 L 1.140625 0 L 1.140625 -7 L 1.75 -7 L 4.796875 -1.8125 L 7.796875 -7 Z M 8.40625 -7 "/></g></g></g><g fill="#000000" fill-opacity="1"><g transform="translate(247.688029, 218.504664)"><g><path d="M 1.140625 -7 L 1.875 -7 L 1.875 0 L 1.140625 0 Z M 1.140625 -7 "/></g></g></g><g fill="#000000" fill-opacity="1"><g transform="translate(250.706843, 218.504664)"><g><path d="M 2.5 -6.359375 L 0.046875 -6.359375 L 0.046875 -7 L 5.703125 -7 L 5.703125 -6.359375 L 3.234375 -6.359375 L 3.234375 0 L 2.5 0 Z M 2.5 -6.359375 "/></g></g></g><g fill="#000000" fill-opacity="1"><g transform="translate(256.444578, 218.504664)"><g><path d="M 6.09375 -0.640625 L 6.09375 0 L 1.140625 0 L 1.140625 -7 L 5.9375 -7 L 5.9375 -6.359375 L 1.875 -6.359375 L 1.875 -3.875 L 5.5 -3.875 L 5.5 -3.234375 L 1.875 -3.234375 L 1.875 -0.640625 Z M 6.09375 -0.640625 "/></g></g></g><g fill="#000000" fill-opacity="1"><g transform="translate(263.131944, 218.504664)"><g><path d="M 1.140625 -7 L 3.984375 -7 C 4.722656 -7 5.375 -6.847656 5.9375 -6.546875 C 6.507812 -6.253906 6.953125 -5.84375 7.265625 -5.3125 C 7.578125 -4.78125 7.734375 -4.175781 7.734375 -3.5 C 7.734375 -2.820312 7.578125 -2.21875 7.265625 -1.6875 C 6.953125 -1.15625 6.507812 -0.738281 5.9375 -0.4375 C 5.375 -0.144531 4.722656 0 3.984375 0 L 1.140625 0 Z M 3.953125 -0.640625 C 4.566406 -0.640625 5.101562 -0.757812 5.5625 -1 C 6.019531 -1.25 6.375 -1.585938 6.625 -2.015625 C 6.882812 -2.441406 7.015625 -2.9375 7.015625 -3.5 C 7.015625 -4.0625 6.882812 -4.554688 6.625 -4.984375 C 6.375 -5.410156 6.019531 -5.742188 5.5625 -5.984375 C 5.101562 -6.234375 4.566406 -6.359375 3.953125 -6.359375 L 1.875 -6.359375 L 1.875 -0.640625 Z M 3.953125 -0.640625 "/></g></g></g></svg>